<svg xmlns="http://www.w3.org/2000/svg" version="1.1" xmlns:xlink="http://www.w3.org/1999/xlink" xmlns:svgjs="http://svgjs.dev/svgjs" width="1440" height="560" preserveAspectRatio="none" viewBox="0 0 1440 560"><g mask="url(&quot;#SvgjsMask1026&quot;)" fill="none"><rect width="1440" height="560" x="0" y="0" fill="rgba(81, 6, 121, 1)"></rect><rect width="224.4" height="224.4" clip-path="url(&quot;#SvgjsClipPath1027&quot;)" x="-97.18" y="170.91" fill="url(&quot;#SvgjsPattern1028&quot;)" transform="rotate(241.02, 15.02, 283.11)"></rect><circle r="83.91431376513314" cx="871.85" cy="34.61" stroke="rgba(14, 75, 212, 1)" stroke-width="2.37" stroke-dasharray="4, 4"></circle><path d="M200.25 18.39a5.6 5.6 0 1 0-11.2-0.05 5.6 5.6 0 1 0 11.2 0.05zM184.25 18.32a5.6 5.6 0 1 0-11.2-0.05 5.6 5.6 0 1 0 11.2 0.05zM168.25 18.25a5.6 5.6 0 1 0-11.2-0.05 5.6 5.6 0 1 0 11.2 0.05zM152.25 18.18a5.6 5.6 0 1 0-11.2-0.05 5.6 5.6 0 1 0 11.2 0.05zM232.32 2.53a5.6 5.6 0 1 0-11.2-0.05 5.6 5.6 0 1 0 11.2 0.05zM216.32 2.46a5.6 5.6 0 1 0-11.2-0.05 5.6 5.6 0 1 0 11.2 0.05zM200.32 2.39a5.6 5.6 0 1 0-11.2-0.05 5.6 5.6 0 1 0 11.2 0.05zM184.32 2.32a5.6 5.6 0 1 0-11.2-0.05 5.6 5.6 0 1 0 11.2 0.05z" stroke="#d3b714" stroke-width="1.88" stroke-dasharray="4, 4"></path><rect width="138.56" height="138.56" clip-path="url(&quot;#SvgjsClipPath1029&quot;)" x="1133.53" y="160.46" fill="url(&quot;#SvgjsPattern1030&quot;)" transform="rotate(174.57, 1202.81, 229.74)"></rect><rect width="129.84" height="129.84" clip-path="url(&quot;#SvgjsClipPath1031&quot;)" x="29.69" y="476.36" fill="url(&quot;#SvgjsPattern1032&quot;)" transform="rotate(198.19, 94.61, 541.28)"></rect><rect width="268.32" height="268.32" clip-path="url(&quot;#SvgjsClipPath1033&quot;)" x="864.66" y="156.53" fill="url(&quot;#SvgjsPattern1034&quot;)" transform="rotate(191.91, 998.82, 290.69)"></rect><path d="M435.03999999999996 572.5699999999999 L433.99 487.09999999999997L468.7551398263739 495.594860173626z" fill="#037b0b"></path><path d="M1408.66 523.63L1401.11 513.28 1409.55 503.65 1402 493.3 1410.44 483.67 1402.89 473.32 1411.33 463.69M1416.65 523.98L1409.1 513.64 1417.54 504 1409.99 493.66 1418.43 484.02 1410.88 473.68 1419.32 464.04" stroke="#d3b714" stroke-width="2" stroke-dasharray="2, 2"></path><path d="M1317.09 569.26 L1316.25 540.9L1329.5170710899065 542.2329289100934z" stroke="#037b0b" stroke-width="2.13" stroke-dasharray="3, 3"></path><path d="M1256.59 513.15a5.6 5.6 0 1 0-7.35-8.45 5.6 5.6 0 1 0 7.35 8.45zM1246.08 501.08a5.6 5.6 0 1 0-7.36-8.44 5.6 5.6 0 1 0 7.36 8.44zM1235.57 489.02a5.6 5.6 0 1 0-7.36-8.44 5.6 5.6 0 1 0 7.36 8.44zM1225.06 476.96a5.6 5.6 0 1 0-7.36-8.44 5.6 5.6 0 1 0 7.36 8.44zM1289.68 526.76a5.6 5.6 0 1 0-7.36-8.44 5.6 5.6 0 1 0 7.36 8.44zM1279.17 514.7a5.6 5.6 0 1 0-7.36-8.45 5.6 5.6 0 1 0 7.36 8.45zM1268.66 502.64a5.6 5.6 0 1 0-7.36-8.45 5.6 5.6 0 1 0 7.36 8.45zM1258.14 490.57a5.6 5.6 0 1 0-7.35-8.44 5.6 5.6 0 1 0 7.35 8.44z" stroke="#037b0b" stroke-width="1.69" stroke-dasharray="4, 4"></path><rect width="61.2" height="61.2" clip-path="url(&quot;#SvgjsClipPath1035&quot;)" x="949.41" y="218.31" fill="url(&quot;#SvgjsPattern1036&quot;)" transform="rotate(21.37, 980.01, 248.91)"></rect><rect width="273.6" height="273.6" clip-path="url(&quot;#SvgjsClipPath1037&quot;)" x="-90.01" y="106.65" fill="url(&quot;#SvgjsPattern1038&quot;)" transform="rotate(4.03, 46.79, 243.45)"></rect></g><defs><mask id="SvgjsMask1026"><rect width="1440" height="560" fill="#ffffff"></rect></mask><pattern x="0" y="0" width="224.4" height="7.48" patternUnits="userSpaceOnUse" id="SvgjsPattern1028"><rect width="224.4" height="3.74" x="0" y="0" fill="rgba(14, 75, 212, 1)"></rect><rect width="224.4" height="3.74" x="0" y="3.74" fill="rgba(0, 0, 0, 0)"></rect></pattern><clipPath id="SvgjsClipPath1027"><circle r="56.1" cx="15.02" cy="283.11"></circle></clipPath><pattern x="0" y="0" width="138.56" height="8.66" patternUnits="userSpaceOnUse" id="SvgjsPattern1030"><rect width="138.56" height="4.33" x="0" y="0" fill="rgba(14, 75, 212, 1)"></rect><rect width="138.56" height="4.33" x="0" y="4.33" fill="rgba(0, 0, 0, 0)"></rect></pattern><clipPath id="SvgjsClipPath1029"><circle r="34.64" cx="1202.81" cy="229.74"></circle></clipPath><pattern x="0" y="0" width="129.84" height="10.82" patternUnits="userSpaceOnUse" id="SvgjsPattern1032"><rect width="129.84" height="5.41" x="0" y="0" fill="#d3b714"></rect><rect width="129.84" height="5.41" x="0" y="5.41" fill="rgba(0, 0, 0, 0)"></rect></pattern><clipPath id="SvgjsClipPath1031"><circle r="32.46" cx="94.61" cy="541.28"></circle></clipPath><pattern x="0" y="0" width="268.32" height="10.32" patternUnits="userSpaceOnUse" id="SvgjsPattern1034"><rect width="268.32" height="5.16" x="0" y="0" fill="#037b0b"></rect><rect width="268.32" height="5.16" x="0" y="5.16" fill="rgba(0, 0, 0, 0)"></rect></pattern><clipPath id="SvgjsClipPath1033"><circle r="67.08" cx="998.82" cy="290.69"></circle></clipPath><pattern x="0" y="0" width="61.2" height="6.12" patternUnits="userSpaceOnUse" id="SvgjsPattern1036"><rect width="61.2" height="3.06" x="0" y="0" fill="#037b0b"></rect><rect width="61.2" height="3.06" x="0" y="3.06" fill="rgba(0, 0, 0, 0)"></rect></pattern><clipPath id="SvgjsClipPath1035"><circle r="15.3" cx="980.01" cy="248.91"></circle></clipPath><pattern x="0" y="0" width="273.6" height="13.68" patternUnits="userSpaceOnUse" id="SvgjsPattern1038"><rect width="273.6" height="6.84" x="0" y="0" fill="rgba(14, 75, 212, 1)"></rect><rect width="273.6" height="6.84" x="0" y="6.84" fill="rgba(0, 0, 0, 0)"></rect></pattern><clipPath id="SvgjsClipPath1037"><circle r="68.4" cx="46.79" cy="243.45"></circle></clipPath></defs></svg>